<svg version="1.1" id="Layer_1" xmlns="http://www.w3.org/2000/svg" xmlns:xlink="http://www.w3.org/1999/xlink" x="0px" y="0px"
	 width="100%" viewBox="0 0 500 500" enable-background="new 0 0 500 500" xml:space="preserve">
<path fill="#000000" opacity="1.000000" stroke="none" 
	d="
M345.000000,501.000000 
	C230.000031,501.000000 115.500053,501.000000 1.000062,501.000000 
	C1.000041,334.333405 1.000041,167.666794 1.000021,1.000151 
	C167.666550,1.000101 334.333099,1.000101 500.999756,1.000050 
	C500.999817,167.666519 500.999817,334.333038 500.999908,500.999786 
	C449.166656,501.000000 397.333344,501.000000 345.000000,501.000000 
M177.780396,214.919708 
	C177.780396,214.919708 177.832886,214.881683 177.273376,215.112579 
	C177.167007,215.284027 177.060654,215.455475 176.447693,215.663788 
	C175.947144,216.092911 175.446594,216.522034 174.277435,217.143311 
	C174.137177,217.327988 173.996918,217.512650 173.266525,217.657669 
	C171.900665,218.441086 170.534805,219.224503 168.431137,220.104065 
	C150.947083,229.973221 131.919037,235.448273 112.493187,239.818253 
	C105.298355,241.436798 101.588165,245.415207 101.070862,251.770996 
	C100.508125,258.685028 103.529572,262.993591 111.608223,266.329163 
	C126.069588,270.552612 140.530960,274.776062 154.998779,279.002441 
	C154.998779,279.002441 155.004181,279.005249 155.390656,279.572754 
	C177.248322,288.466370 195.028824,302.449066 207.753708,322.401184 
	C212.362701,329.627960 216.040955,337.448273 220.199509,345.723236 
	C224.784744,360.655548 229.389572,375.581848 233.944733,390.523346 
	C235.555420,395.806580 237.314484,400.935242 243.695908,403.802521 
	C249.732346,406.174133 255.131012,405.232086 260.478577,400.490875 
	C262.832825,393.988159 265.779266,387.631836 267.429626,380.955139 
	C272.281372,361.326569 278.883728,342.298981 289.609558,325.218872 
	C300.308746,308.181152 314.570618,294.081543 332.973480,285.354553 
	C343.895569,280.175110 355.674561,276.802673 367.828369,272.561249 
	C374.389130,270.897552 380.991943,269.381683 387.499176,267.529877 
	C394.444305,265.553558 398.482147,260.124268 398.430359,253.400528 
	C398.381104,247.008789 393.950562,241.290375 387.031464,239.674301 
	C367.186310,235.039185 347.879974,229.000671 329.632568,218.417725 
	C317.514526,211.827972 307.546600,202.615982 298.982880,192.019196 
	C293.128784,184.775284 288.266052,176.730209 282.884033,168.551498 
	C282.884033,168.551498 282.683319,168.096069 282.704620,167.377335 
	C280.787567,163.624100 278.870514,159.870850 276.776581,155.364517 
	C273.817261,146.269150 270.857941,137.173767 267.896912,127.376991 
	C267.548096,126.056412 267.199280,124.735840 266.733765,122.618607 
	C266.607361,122.381844 266.480957,122.145088 266.525940,121.464653 
	C266.326202,121.053642 266.126465,120.642632 265.898254,119.398186 
	C264.987732,116.381798 264.419678,113.205635 263.101196,110.379593 
	C259.456268,102.567223 249.874710,98.992241 243.023544,104.003792 
	C239.134171,106.848831 236.485596,112.230568 234.762177,117.005478 
	C231.953445,124.787308 230.783585,133.149948 228.145996,141.006958 
	C224.793076,150.994873 221.476440,161.144836 216.636993,170.440277 
	C212.106705,179.141876 205.609222,186.819275 199.966980,194.968338 
	C199.966980,194.968338 199.947617,194.981476 199.353760,195.213364 
	C198.586121,196.234909 197.818481,197.256454 196.468414,198.556976 
	C191.485291,203.065338 186.502182,207.573700 180.894821,212.288864 
	C180.596024,212.603073 180.297241,212.917282 179.499344,213.283936 
	C179.198578,213.569641 178.897827,213.855362 178.060532,214.453049 
	C177.933868,214.616623 177.807190,214.780197 177.780396,214.919708 
M362.696259,106.617783 
	C360.192139,100.492500 357.816406,94.308968 355.084839,88.286842 
	C354.475311,86.943085 352.682007,85.489143 351.309418,85.354691 
	C350.310181,85.256798 348.821106,87.078377 348.075470,88.351669 
	C347.351624,89.587700 347.204254,91.200607 346.963470,92.674118 
	C344.754150,106.196671 337.335602,114.878052 323.811798,118.258018 
	C321.863434,118.744965 320.293396,120.745705 318.548279,122.045921 
	C320.248199,123.578590 321.894928,125.177567 323.677551,126.607109 
	C324.281860,127.091736 325.246979,127.103691 326.017365,127.407402 
	C336.361237,131.485306 343.826813,138.170364 346.099365,149.573181 
	C346.554596,151.857391 346.848267,154.228653 347.711609,156.359100 
	C348.386597,158.024658 349.828247,159.379517 350.929230,160.872437 
	C352.337616,159.486053 353.864288,158.195694 355.102173,156.670898 
	C355.680450,155.958649 355.772430,154.806946 355.962158,153.830597 
	C358.782745,139.314896 366.428101,129.329895 381.502289,125.916214 
	C383.332184,125.501823 384.764679,123.332565 386.381348,121.976631 
	C384.709381,120.689377 383.198517,118.643448 381.337158,118.248268 
	C373.903015,116.669937 367.348175,113.949196 362.696259,106.617783 
M384.167725,163.053986 
	C380.952240,162.493011 380.105865,164.617981 379.706055,167.098190 
	C378.476196,174.727448 374.238037,179.620605 366.851746,182.049347 
	C365.399445,182.526886 363.519104,184.291656 363.424377,185.579559 
	C363.329987,186.862961 364.949371,188.998642 366.305817,189.542603 
	C374.084717,192.662064 379.535431,197.548630 381.069489,206.201233 
	C381.268829,207.325623 382.912628,208.786606 384.051697,208.950668 
	C384.858307,209.066864 386.589661,207.383301 386.799500,206.290298 
	C388.460693,197.636795 393.663910,192.209045 401.578979,188.878067 
	C402.904510,188.320221 404.655914,186.782043 404.676636,185.668304 
	C404.697937,184.522018 403.061371,182.744537 401.773132,182.272598 
	C393.952484,179.407455 389.295319,173.826523 386.825928,166.078476 
	C386.498108,165.049942 385.553497,164.217972 384.167725,163.053986 
z"/>
<path fill="#2E9AF5" opacity="1.000000" stroke="none" 
	d="
M362.904572,106.918915 
	C367.348175,113.949196 373.903015,116.669937 381.337158,118.248268 
	C383.198517,118.643448 384.709381,120.689377 386.381348,121.976624 
	C384.764679,123.332565 383.332184,125.501823 381.502289,125.916214 
	C366.428101,129.329895 358.782745,139.314896 355.962158,153.830597 
	C355.772430,154.806946 355.680450,155.958649 355.102173,156.670898 
	C353.864288,158.195694 352.337616,159.486053 350.929230,160.872437 
	C349.828247,159.379517 348.386597,158.024658 347.711609,156.359100 
	C346.848267,154.228653 346.554596,151.857391 346.099365,149.573181 
	C343.826813,138.170364 336.361237,131.485306 326.017365,127.407402 
	C325.246979,127.103691 324.281860,127.091736 323.677551,126.607109 
	C321.894928,125.177567 320.248199,123.578590 318.548279,122.045914 
	C320.293396,120.745705 321.863434,118.744965 323.811798,118.258018 
	C337.335602,114.878052 344.754150,106.196671 346.963470,92.674118 
	C347.204254,91.200607 347.351624,89.587700 348.075470,88.351669 
	C348.821106,87.078377 350.310181,85.256798 351.309418,85.354691 
	C352.682007,85.489143 354.475311,86.943085 355.084839,88.286842 
	C357.816406,94.308968 360.192139,100.492500 362.904572,106.918915 
z"/>
<path fill="#20DCFC" opacity="1.000000" stroke="none" 
	d="
M181.519073,212.082062 
	C186.502182,207.573700 191.485291,203.065338 197.009964,198.472656 
	C198.350220,197.252716 199.148911,196.117096 199.947601,194.981476 
	C199.947617,194.981476 199.966980,194.968338 200.313156,194.912384 
	C202.176025,193.446457 203.714981,192.059540 205.204544,190.621445 
	C207.827499,188.089111 210.420258,185.525543 212.953491,183.324692 
	C210.917343,187.464554 208.953369,191.254776 206.648651,195.102936 
	C204.556931,197.091354 202.805939,199.021835 200.899506,201.282959 
	C199.116394,207.596420 196.064499,212.549591 190.649658,215.874405 
	C187.710831,217.678894 184.883118,219.663437 181.964066,221.501297 
	C174.718109,226.063461 167.622604,230.902161 160.143753,235.047180 
	C151.055145,240.084381 140.913025,243.144577 132.804535,250.060867 
	C128.616501,253.633118 128.891830,258.901733 133.764633,261.340637 
	C139.551651,264.237122 145.484558,266.883301 151.078522,270.115204 
	C160.654770,275.647919 170.126587,281.383270 179.384521,287.428253 
	C181.471359,288.790833 182.498886,291.775757 183.721039,293.845917 
	C174.771454,287.202393 165.825195,281.287964 155.004181,279.005249 
	C155.004181,279.005249 154.998779,279.002441 154.803955,278.708649 
	C146.757843,275.608826 138.906540,272.802795 130.950531,269.664001 
	C127.213829,267.208557 123.451973,265.277374 119.978027,262.921600 
	C113.621681,258.611206 113.808136,250.686768 120.489098,247.140411 
	C125.105827,244.689774 130.077667,242.881836 134.960831,240.965103 
	C144.337418,237.284622 153.884262,234.008835 163.117722,230.005325 
	C167.620758,228.052841 171.788666,225.118118 175.723236,222.122330 
	C179.729065,219.072311 183.261902,215.401077 187.303558,211.948395 
	C188.245132,211.297760 188.884979,210.700546 189.524826,210.103348 
	C189.192032,209.844727 188.859222,209.586121 188.526413,209.327499 
	C188.016998,210.217728 187.507584,211.107941 186.605042,211.997025 
	C184.647644,212.024597 183.083359,212.053329 181.519073,212.082062 
M193.605652,204.785477 
	C193.771759,204.986526 193.937866,205.187561 194.103943,205.388596 
	C194.211868,205.288544 194.319778,205.188492 194.427704,205.088455 
	C194.237396,204.909424 194.047089,204.730377 193.605652,204.785477 
M196.530090,203.503220 
	C196.530090,203.503220 196.485443,203.521103 196.530090,203.503220 
z"/>
<path fill="#27BFF8" opacity="1.000000" stroke="none" 
	d="
M213.025665,182.975037 
	C210.420258,185.525543 207.827499,188.089111 205.204544,190.621445 
	C203.714981,192.059540 202.176025,193.446457 200.318390,194.901932 
	C205.609222,186.819275 212.106705,179.141876 216.636993,170.440277 
	C221.476440,161.144836 224.793076,150.994873 228.145996,141.006958 
	C230.783585,133.149948 231.953445,124.787308 234.762177,117.005478 
	C236.485596,112.230568 239.134171,106.848831 243.023544,104.003792 
	C249.874710,98.992241 259.456268,102.567223 263.101196,110.379593 
	C264.419678,113.205635 264.987732,116.381798 265.897736,120.037308 
	C266.049652,121.087067 266.202118,121.497696 266.354553,121.908333 
	C266.480957,122.145088 266.607361,122.381844 266.763855,123.316071 
	C266.758362,124.611504 266.722778,125.209473 266.451294,125.666748 
	C265.465210,124.686295 264.715057,123.846519 263.968262,122.593460 
	C263.622925,120.221489 263.518005,118.170403 262.825073,116.342216 
	C262.466431,115.396049 261.041107,114.185883 260.138977,114.219017 
	C252.417709,114.502670 245.775253,116.995415 242.277939,124.546181 
	C240.396851,128.607559 238.695557,132.776062 237.252472,137.011841 
	C233.404312,148.307083 229.739899,159.664948 225.673370,171.087769 
	C222.897812,174.780777 220.451324,178.383896 217.639343,182.002762 
	C215.857788,182.337341 214.441727,182.656189 213.025665,182.975037 
z"/>
<path fill="#24EBFC" opacity="1.000000" stroke="none" 
	d="
M181.206940,212.185455 
	C183.083359,212.053329 184.647644,212.024597 186.605957,211.997940 
	C187.000000,212.000000 187.001831,212.001831 187.001831,212.001831 
	C183.261902,215.401077 179.729065,219.072311 175.723236,222.122330 
	C171.788666,225.118118 167.620758,228.052841 163.117722,230.005325 
	C153.884262,234.008835 144.337418,237.284622 134.960831,240.965103 
	C130.077667,242.881836 125.105827,244.689774 120.489098,247.140411 
	C113.808136,250.686768 113.621681,258.611206 119.978027,262.921600 
	C123.451973,265.277374 127.213829,267.208557 130.561523,269.608490 
	C123.854141,268.570984 117.431091,267.256195 111.008041,265.941406 
	C103.529572,262.993591 100.508125,258.685028 101.070862,251.770996 
	C101.588165,245.415207 105.298355,241.436798 112.493187,239.818253 
	C131.919037,235.448273 150.947083,229.973221 169.121735,220.073120 
	C171.160461,219.260544 172.508560,218.478928 173.856674,217.697311 
	C173.996918,217.512650 174.137177,217.327988 174.848175,216.981079 
	C175.930695,216.421524 176.442490,216.024231 176.954285,215.626923 
	C177.060654,215.455475 177.167007,215.284027 177.522919,214.993240 
	C177.772476,214.873901 177.680527,214.943787 177.680527,214.943787 
	C177.807190,214.780197 177.933868,214.616623 178.538849,214.242889 
	C179.344254,213.765640 179.671356,213.498566 179.998474,213.231506 
	C180.297241,212.917282 180.596024,212.603073 181.206940,212.185455 
z"/>
<path fill="#1F71ED" opacity="1.000000" stroke="none" 
	d="
M367.068237,272.617767 
	C355.674561,276.802673 343.895569,280.175110 332.973480,285.354553 
	C314.570618,294.081543 300.308746,308.181152 289.609558,325.218872 
	C278.883728,342.298981 272.281372,361.326569 267.429626,380.955139 
	C265.779266,387.631836 262.832825,393.988159 260.026367,400.443390 
	C259.379486,400.209045 259.158752,400.061035 258.957886,399.581665 
	C259.791595,396.707458 260.579376,394.203461 261.480743,391.338409 
	C259.670532,392.004852 258.340149,392.494629 257.086945,392.618103 
	C257.776459,389.499939 258.388763,386.748138 259.073303,383.639862 
	C261.533783,377.502380 265.526703,372.108856 263.117096,365.209869 
	C262.719971,364.072876 262.947754,361.599609 263.429840,361.445709 
	C268.525940,359.819275 268.108215,354.673767 270.093323,351.192871 
	C273.758728,344.765625 276.878784,338.023468 280.128937,331.365143 
	C281.534668,328.485352 282.306549,325.219086 284.085205,322.620392 
	C285.818176,320.088440 288.468994,318.184723 290.716858,316.005188 
	C290.447083,315.713867 290.177307,315.422577 289.907532,315.131256 
	C291.089630,315.255249 292.271729,315.379211 293.453796,315.503174 
	C293.712067,315.167603 293.970337,314.832031 294.228607,314.496460 
	C293.158112,313.326874 292.087585,312.157318 291.065796,310.677795 
	C291.742615,309.578949 292.370728,308.790100 293.336182,308.055450 
	C295.302216,307.723877 297.348511,307.824432 298.476593,306.855713 
	C301.213562,304.505249 303.523315,301.657288 306.002594,299.004883 
	C306.000000,299.000000 306.010040,299.005615 306.332458,298.861389 
	C309.133575,297.167053 311.986420,295.997192 314.020599,293.995392 
	C320.092163,288.020508 327.306458,284.065552 335.128754,281.059540 
	C344.775116,277.352570 354.433929,273.674042 364.156006,270.173889 
	C365.212891,269.793396 366.723236,270.672516 367.917480,271.182251 
	C367.563904,271.803986 367.316071,272.210876 367.068237,272.617767 
z"/>
<path fill="#2F8EF0" opacity="1.000000" stroke="none" 
	d="
M384.531128,163.174469 
	C385.553497,164.217972 386.498108,165.049942 386.825928,166.078476 
	C389.295319,173.826523 393.952484,179.407455 401.773132,182.272598 
	C403.061371,182.744537 404.697937,184.522018 404.676636,185.668304 
	C404.655914,186.782043 402.904510,188.320221 401.578979,188.878067 
	C393.663910,192.209045 388.460693,197.636795 386.799500,206.290298 
	C386.589661,207.383301 384.858307,209.066864 384.051697,208.950668 
	C382.912628,208.786606 381.268829,207.325623 381.069489,206.201233 
	C379.535431,197.548630 374.084717,192.662064 366.305817,189.542603 
	C364.949371,188.998642 363.329987,186.862961 363.424377,185.579559 
	C363.519104,184.291656 365.399445,182.526886 366.851746,182.049347 
	C374.238037,179.620605 378.476196,174.727448 379.706055,167.098190 
	C380.105865,164.617981 380.952240,162.493011 384.531128,163.174469 
z"/>
<path fill="#219AF7" opacity="1.000000" stroke="none" 
	d="
M282.683319,168.096069 
	C282.683319,168.096069 282.884033,168.551498 282.904663,169.192535 
	C283.498657,171.846802 283.897614,173.931839 284.689301,175.855225 
	C285.690094,178.286652 287.010773,180.586441 287.812012,182.904144 
	C285.977295,181.686279 284.421875,180.611053 283.095276,179.303619 
	C281.179810,177.415833 279.480316,175.310150 277.586060,173.399155 
	C276.801758,172.607925 275.188110,172.260651 274.912994,171.403061 
	C272.823364,164.889359 266.574799,162.833664 262.069519,158.620087 
	C262.173340,156.203033 263.080902,153.261093 262.080322,152.294647 
	C259.128479,149.443481 255.421341,147.374298 252.025452,144.634995 
	C254.079346,139.232391 256.814209,137.887802 259.254242,141.102295 
	C262.494110,145.370453 265.808350,144.833542 269.950073,142.577255 
	C268.954071,138.338562 267.975830,134.175522 267.165100,129.840561 
	C267.425507,129.215866 267.518372,128.763077 267.683441,128.252747 
	C267.755646,128.195190 267.898621,128.078400 267.898621,128.078400 
	C270.857941,137.173767 273.817261,146.269150 276.864868,156.112961 
	C278.863251,160.606293 280.773285,164.351181 282.683319,168.096069 
z"/>
<path fill="#219AF7" opacity="1.000000" stroke="none" 
	d="
M258.911957,399.951813 
	C259.158752,400.061035 259.379486,400.209045 259.706055,400.545837 
	C255.131012,405.232086 249.732346,406.174133 243.247559,403.255188 
	C237.665863,397.189880 235.238190,390.477814 234.013748,383.179626 
	C232.307785,373.011292 230.626221,362.833954 228.595032,352.728668 
	C228.117462,350.352722 226.283020,348.249512 224.843506,345.775513 
	C224.426239,344.667938 224.238251,343.805695 224.214386,342.781738 
	C224.258057,342.092438 224.137558,341.564789 223.949722,340.688629 
	C222.595932,337.898651 221.309494,335.457184 220.380188,333.028564 
	C222.490723,333.694672 224.244141,334.347961 226.148056,335.333649 
	C227.867523,339.443390 229.436493,343.220764 231.004974,347.331024 
	C231.005783,348.107819 231.007095,348.551666 231.023605,349.334839 
	C231.691025,350.450439 232.343262,351.226715 233.002106,352.388702 
	C234.411438,358.657135 235.773865,364.550232 237.274704,370.407867 
	C237.437943,371.045044 238.400116,371.477539 238.991699,372.379639 
	C238.995758,373.503693 238.999817,374.253082 239.047592,375.287048 
	C239.391953,376.047516 239.692581,376.523315 239.996277,377.383911 
	C240.327225,379.510498 240.655106,381.252350 240.687042,383.081879 
	C239.638260,388.517853 242.726883,394.990631 247.217621,397.248138 
	C250.783722,400.570312 254.107483,403.717682 258.911957,399.951813 
z"/>
<path fill="#27BFF8" opacity="1.000000" stroke="none" 
	d="
M224.050232,342.943420 
	C224.238251,343.805695 224.426239,344.667938 224.809448,346.086487 
	C224.306870,346.975708 223.334702,347.772980 222.963272,347.553558 
	C221.893555,346.921509 221.066360,345.879028 220.143906,344.997772 
	C216.040955,337.448273 212.362701,329.627960 207.753708,322.401184 
	C195.028824,302.449066 177.248322,288.466370 155.197418,279.289001 
	C165.825195,281.287964 174.771454,287.202393 183.948395,294.091248 
	C187.983810,296.665588 191.498871,298.826691 195.378448,301.006104 
	C197.160355,301.350464 198.577728,301.676514 200.080673,302.323120 
	C202.441086,304.763550 204.715942,306.883453 207.160675,309.294922 
	C208.995377,312.177368 210.676239,314.758148 212.321060,317.361664 
	C214.556992,320.900726 216.765381,324.457184 218.992508,328.377563 
	C219.340668,330.171204 219.681854,331.593445 220.023041,333.015717 
	C221.309494,335.457184 222.595932,337.898651 223.772232,340.847046 
	C223.791473,341.883820 223.920853,342.413605 224.050232,342.943420 
z"/>
<path fill="#2470D1" opacity="1.000000" stroke="none" 
	d="
M367.448303,272.589508 
	C367.316071,272.210876 367.563904,271.803986 368.248108,271.163544 
	C369.125031,270.892700 369.565582,270.855469 370.287231,270.811584 
	C371.056335,270.551331 371.544312,270.297699 372.372742,269.888214 
	C374.930145,269.125977 377.226257,268.718140 379.347687,267.872192 
	C383.866730,266.070190 388.891266,264.813263 392.626587,261.930817 
	C398.864014,257.117523 397.678589,248.277710 390.864624,244.621307 
	C389.620636,243.576981 388.663757,242.403259 387.510925,242.160614 
	C381.743256,240.946686 375.924194,239.976807 370.010620,238.586563 
	C368.519958,237.412384 367.235199,236.313919 365.747772,235.777832 
	C359.203705,233.419205 352.601105,231.222916 345.727051,228.831131 
	C344.615692,228.447311 343.797058,228.200134 342.766174,227.942688 
	C342.553925,227.932419 342.129089,227.942947 342.020020,227.608795 
	C340.703857,226.477722 339.507202,225.664429 338.287598,224.887131 
	C335.407257,223.051285 332.515930,221.232590 329.720367,219.305634 
	C329.811676,219.204330 329.993103,219.000656 329.993103,219.000656 
	C347.879974,229.000671 367.186310,235.039185 387.031464,239.674301 
	C393.950562,241.290375 398.381104,247.008789 398.430359,253.400528 
	C398.482147,260.124268 394.444305,265.553558 387.499176,267.529877 
	C380.991943,269.381683 374.389130,270.897552 367.448303,272.589508 
z"/>
<path fill="#2E9AF5" opacity="1.000000" stroke="none" 
	d="
M220.171707,345.360504 
	C221.066360,345.879028 221.893555,346.921509 222.963272,347.553558 
	C223.334702,347.772980 224.306870,346.975708 225.038727,346.331787 
	C226.283020,348.249512 228.117462,350.352722 228.595032,352.728668 
	C230.626221,362.833954 232.307785,373.011292 234.013748,383.179626 
	C235.238190,390.477814 237.665863,397.189880 242.911072,402.993774 
	C237.314484,400.935242 235.555420,395.806580 233.944733,390.523346 
	C229.389572,375.581848 224.784744,360.655548 220.171707,345.360504 
z"/>
<path fill="#2470D1" opacity="1.000000" stroke="none" 
	d="
M288.193512,182.943008 
	C287.010773,180.586441 285.690094,178.286652 284.689301,175.855225 
	C283.897614,173.931839 283.498657,171.846802 282.942688,169.438446 
	C288.266052,176.730209 293.128784,184.775284 298.982880,192.019196 
	C307.546600,202.615982 317.514526,211.827972 329.812836,218.709198 
	C329.993103,219.000656 329.811676,219.204330 329.361511,219.217209 
	C327.507782,218.813309 325.886719,218.715439 324.734619,217.929840 
	C314.594208,211.015076 304.921814,203.584549 297.762268,193.349518 
	C296.711456,191.847305 294.703979,191.014252 293.067017,189.537872 
	C291.394409,187.117111 289.793945,185.030060 288.193512,182.943008 
z"/>
<path fill="#27BFF8" opacity="1.000000" stroke="none" 
	d="
M111.308136,266.135284 
	C117.431091,267.256195 123.854141,268.570984 130.666214,269.941254 
	C138.906540,272.802795 146.757843,275.608826 154.800735,278.707184 
	C140.530960,274.776062 126.069588,270.552612 111.308136,266.135284 
z"/>
<path fill="#2470D1" opacity="1.000000" stroke="none" 
	d="
M282.693970,167.736694 
	C280.773285,164.351181 278.863251,160.606293 276.953308,156.489502 
	C278.870514,159.870850 280.787567,163.624100 282.693970,167.736694 
z"/>
<path fill="#20DCFC" opacity="1.000000" stroke="none" 
	d="
M173.561600,217.677490 
	C172.508560,218.478928 171.160461,219.260544 169.490646,220.025055 
	C170.534805,219.224503 171.900665,218.441086 173.561600,217.677490 
z"/>
<path fill="#27BFF8" opacity="1.000000" stroke="none" 
	d="
M199.650681,195.097412 
	C199.148911,196.117096 198.350220,197.252716 197.301178,198.333160 
	C197.818481,197.256454 198.586121,196.234909 199.650681,195.097412 
z"/>
<path fill="#219AF7" opacity="1.000000" stroke="none" 
	d="
M266.687195,125.807434 
	C266.722778,125.209473 266.758362,124.611504 266.822205,123.714401 
	C267.199280,124.735840 267.548096,126.056412 267.897766,127.727692 
	C267.898621,128.078400 267.755646,128.195190 267.553284,128.181458 
	C267.350922,128.167709 267.062561,128.087387 267.008179,127.707001 
	C266.864899,126.820221 266.776062,126.313828 266.687195,125.807434 
z"/>
<path fill="#20DCFC" opacity="1.000000" stroke="none" 
	d="
M176.700989,215.645355 
	C176.442490,216.024231 175.930695,216.421524 175.182465,216.884979 
	C175.446594,216.522034 175.947144,216.092911 176.700989,215.645355 
z"/>
<path fill="#20DCFC" opacity="1.000000" stroke="none" 
	d="
M179.748901,213.257721 
	C179.671356,213.498566 179.344254,213.765640 178.807098,214.086884 
	C178.897827,213.855362 179.198578,213.569641 179.748901,213.257721 
z"/>
<path fill="#219AF7" opacity="1.000000" stroke="none" 
	d="
M266.440247,121.686493 
	C266.202118,121.497696 266.049652,121.087067 265.911987,120.454025 
	C266.126465,120.642632 266.326202,121.053642 266.440247,121.686493 
z"/>
<path fill="#20DCFC" opacity="1.000000" stroke="none" 
	d="
M177.730469,214.931747 
	C177.680527,214.943787 177.772476,214.873901 177.802673,214.877792 
	C177.832886,214.881683 177.780396,214.919708 177.730469,214.931747 
z"/>
<path fill="#1BCFFE" opacity="1.000000" stroke="none" 
	d="
M195.013931,300.987793 
	C191.498871,298.826691 187.983810,296.665588 184.241394,294.259155 
	C182.498886,291.775757 181.471359,288.790833 179.384521,287.428253 
	C170.126587,281.383270 160.654770,275.647919 151.078522,270.115204 
	C145.484558,266.883301 139.551651,264.237122 133.764633,261.340637 
	C128.891830,258.901733 128.616501,253.633118 132.804535,250.060867 
	C140.913025,243.144577 151.055145,240.084381 160.143753,235.047180 
	C167.622604,230.902161 174.718109,226.063461 181.964066,221.501297 
	C184.883118,219.663437 187.710831,217.678894 190.649658,215.874405 
	C196.064499,212.549591 199.116394,207.596420 201.229309,201.227539 
	C203.472839,198.909332 205.231110,196.977158 206.989380,195.044983 
	C208.953369,191.254776 210.917343,187.464554 212.953491,183.324677 
	C214.441727,182.656189 215.857788,182.337341 217.584885,182.323273 
	C217.263550,183.751953 216.631165,184.875870 215.717850,186.177063 
	C214.627655,187.901077 213.818405,189.447830 212.859604,191.303009 
	C207.097336,199.605759 202.392609,208.493835 195.634033,215.360367 
	C187.800613,223.318909 178.184830,229.529816 169.298096,236.441910 
	C165.110184,239.699234 160.736572,242.720566 156.592789,246.031189 
	C151.007126,250.493835 149.185272,257.391113 152.673660,261.823181 
	C155.016052,264.799194 157.681976,267.902924 160.894394,269.742218 
	C171.766190,275.967133 180.801407,284.328949 189.478714,293.135864 
	C191.696091,295.386353 193.188461,298.351166 195.013931,300.987793 
z"/>
<path fill="#27BFF8" opacity="1.000000" stroke="none" 
	d="
M206.648651,195.102936 
	C205.231110,196.977158 203.472839,198.909332 201.384766,200.896912 
	C202.805939,199.021835 204.556931,197.091354 206.648651,195.102936 
z"/>
<path fill="#24EBFC" opacity="1.000000" stroke="none" 
	d="
M186.999084,211.999084 
	C187.507584,211.107941 188.016998,210.217728 188.526413,209.327499 
	C188.859222,209.586121 189.192032,209.844727 189.524826,210.103348 
	C188.884979,210.700546 188.245132,211.297760 187.303558,211.948395 
	C187.001831,212.001831 187.000000,212.000000 186.999084,211.999084 
z"/>
<path fill="#24EBFC" opacity="1.000000" stroke="none" 
	d="
M193.731232,204.668396 
	C194.047089,204.730377 194.237396,204.909424 194.427704,205.088440 
	C194.319778,205.188492 194.211868,205.288544 194.103958,205.388596 
	C193.937866,205.187561 193.771759,204.986526 193.731232,204.668396 
z"/>
<path fill="#24EBFC" opacity="1.000000" stroke="none" 
	d="
M196.507767,203.512161 
	C196.485443,203.521103 196.530090,203.503220 196.507767,203.512161 
z"/>
<path fill="#17A7FE" opacity="1.000000" stroke="none" 
	d="
M266.451294,125.666748 
	C266.776062,126.313828 266.864899,126.820221 266.983459,128.025879 
	C267.007965,129.154236 267.002777,129.583359 266.997559,130.012466 
	C267.975830,134.175522 268.954071,138.338562 269.950073,142.577255 
	C265.808350,144.833542 262.494110,145.370453 259.254242,141.102295 
	C256.814209,137.887802 254.079346,139.232391 251.689117,144.730682 
	C250.765244,145.764069 249.955399,146.234787 249.656372,146.926376 
	C242.670547,163.082703 235.646606,179.312286 233.107010,196.848755 
	C231.376251,208.800018 227.260834,219.807343 222.648407,230.757477 
	C217.527344,242.915176 209.630417,253.725510 207.418579,267.340302 
	C204.961975,282.461731 205.311630,296.519958 213.462616,310.067871 
	C216.656281,315.376099 220.290909,321.074188 218.985550,328.006195 
	C216.765381,324.457184 214.556992,320.900726 212.321060,317.361664 
	C210.676239,314.758148 208.995377,312.177368 207.160400,308.912781 
	C203.433350,301.423645 200.409149,294.256317 196.193710,287.876007 
	C189.992233,278.489716 189.172241,264.215790 194.557922,254.468658 
	C197.834244,248.539093 200.080643,242.043442 202.852448,235.830063 
	C203.577484,234.204788 204.492218,232.657791 205.396332,231.119827 
	C209.479843,224.173447 214.500687,217.612030 217.494125,210.226990 
	C222.975967,196.703018 227.252777,182.691391 232.058228,168.892212 
	C235.297943,159.589111 238.404541,150.234070 241.898224,141.026566 
	C245.248077,132.198181 249.290329,123.929298 261.202118,125.358215 
	C262.017303,125.456001 263.039154,123.830711 263.964905,123.006744 
	C264.715057,123.846519 265.465210,124.686295 266.451294,125.666748 
z"/>
<path fill="#17B3FE" opacity="1.000000" stroke="none" 
	d="
M263.968262,122.593460 
	C263.039154,123.830711 262.017303,125.456001 261.202118,125.358215 
	C249.290329,123.929298 245.248077,132.198181 241.898224,141.026566 
	C238.404541,150.234070 235.297943,159.589111 232.058228,168.892212 
	C227.252777,182.691391 222.975967,196.703018 217.494125,210.226990 
	C214.500687,217.612030 209.479843,224.173447 205.396332,231.119827 
	C204.492218,232.657791 203.577484,234.204788 202.852448,235.830063 
	C200.080643,242.043442 197.834244,248.539093 194.557922,254.468658 
	C189.172241,264.215790 189.992233,278.489716 196.193710,287.876007 
	C200.409149,294.256317 203.433350,301.423645 206.990540,308.621216 
	C204.715942,306.883453 202.441086,304.763550 200.065857,301.961121 
	C196.013748,296.055908 192.437164,290.485718 188.008530,285.704773 
	C183.234177,280.550598 179.343704,275.154297 176.006470,268.856903 
	C172.139725,261.560303 172.842987,255.398422 176.915512,249.343552 
	C181.577209,242.412750 186.993011,235.986160 192.138092,229.384872 
	C194.368820,226.522766 196.926224,223.901703 199.013672,220.944183 
	C203.960815,213.935028 208.868881,206.888702 213.509171,199.674988 
	C219.209167,190.813828 223.919495,181.462830 226.002441,170.997910 
	C229.739899,159.664948 233.404312,148.307083 237.252472,137.011841 
	C238.695557,132.776062 240.396851,128.607559 242.277939,124.546181 
	C245.775253,116.995415 252.417709,114.502670 260.138977,114.219017 
	C261.041107,114.185883 262.466431,115.396049 262.825073,116.342216 
	C263.518005,118.170403 263.622925,120.221489 263.968262,122.593460 
z"/>
<path fill="#18C0FE" opacity="1.000000" stroke="none" 
	d="
M225.673370,171.087769 
	C223.919495,181.462830 219.209167,190.813828 213.509171,199.674988 
	C208.868881,206.888702 203.960815,213.935028 199.013672,220.944183 
	C196.926224,223.901703 194.368820,226.522766 192.138092,229.384872 
	C186.993011,235.986160 181.577209,242.412750 176.915512,249.343552 
	C172.842987,255.398422 172.139725,261.560303 176.006470,268.856903 
	C179.343704,275.154297 183.234177,280.550598 188.008530,285.704773 
	C192.437164,290.485718 196.013748,296.055908 199.980301,301.640594 
	C198.577728,301.676514 197.160355,301.350464 195.378448,301.006104 
	C193.188461,298.351166 191.696091,295.386353 189.478714,293.135864 
	C180.801407,284.328949 171.766190,275.967133 160.894394,269.742218 
	C157.681976,267.902924 155.016052,264.799194 152.673660,261.823181 
	C149.185272,257.391113 151.007126,250.493835 156.592789,246.031189 
	C160.736572,242.720566 165.110184,239.699234 169.298096,236.441910 
	C178.184830,229.529816 187.800613,223.318909 195.634033,215.360367 
	C202.392609,208.493835 207.097336,199.605759 213.190552,191.208282 
	C214.446960,189.203369 215.222870,187.601562 215.998779,185.999786 
	C216.631165,184.875870 217.263550,183.751953 217.950378,182.307526 
	C220.451324,178.383896 222.897812,174.780777 225.673370,171.087769 
z"/>
<path fill="#1776FE" opacity="1.000000" stroke="none" 
	d="
M259.001099,383.996338 
	C258.388763,386.748138 257.776459,389.499939 256.768829,392.763916 
	C250.464462,394.559662 247.898544,390.342957 246.796646,386.130035 
	C244.377457,376.880615 242.875320,367.391357 240.975098,357.580627 
	C238.501633,346.138123 239.454147,335.097809 241.346329,324.174927 
	C242.027451,320.243042 243.448029,315.799530 246.039124,312.970795 
	C251.511185,306.996857 255.940369,300.773895 257.932312,292.812073 
	C258.634399,290.005798 260.298431,287.412201 261.692047,284.811951 
	C266.664886,275.533508 272.660156,266.669189 276.499908,256.949493 
	C281.916656,243.238007 285.758392,228.904297 290.324890,214.676376 
	C296.028381,214.416016 301.962036,214.347397 307.811218,217.705292 
	C312.380493,220.328461 317.900604,221.295319 323.248962,222.999451 
	C323.666901,223.001373 323.834076,223.001984 324.137268,223.196960 
	C324.479431,223.636230 324.721985,223.837204 325.250671,223.996582 
	C325.500427,223.998901 326.000000,224.003586 326.068512,224.345917 
	C326.738831,225.432587 327.189606,226.549393 327.965668,226.864090 
	C336.453522,230.306168 345.001160,233.600540 353.507080,236.998734 
	C354.742218,237.492188 355.843903,238.319733 356.672333,238.995483 
	C355.890900,239.000626 355.444427,239.002960 354.623383,239.004639 
	C353.499603,239.003281 352.750397,239.002548 351.667664,238.850464 
	C346.959991,237.227539 342.647461,235.526443 338.198578,234.334000 
	C329.869141,232.101471 321.500000,229.968353 313.051788,228.269058 
	C311.374329,227.931656 308.544922,229.198853 307.493317,230.637405 
	C304.199127,235.143799 301.204956,239.933075 298.643524,244.896072 
	C295.166565,251.632889 292.387299,258.727814 288.964691,265.495117 
	C284.179535,274.956512 281.455292,285.787842 271.748688,292.121399 
	C270.879303,292.688660 270.470367,294.039398 269.972137,295.085632 
	C265.767975,303.913605 261.527679,312.725403 257.434967,321.605072 
	C255.213638,326.424591 253.140442,331.320526 251.206497,336.262665 
	C246.554398,348.150879 248.358780,360.482849 249.131836,372.676178 
	C249.676956,381.274292 252.331528,383.923279 259.001099,383.996338 
z"/>
<path fill="#1670FE" opacity="1.000000" stroke="none" 
	d="
M259.073303,383.639862 
	C252.331528,383.923279 249.676956,381.274292 249.131836,372.676178 
	C248.358780,360.482849 246.554398,348.150879 251.206497,336.262665 
	C253.140442,331.320526 255.213638,326.424591 257.434967,321.605072 
	C261.527679,312.725403 265.767975,303.913605 269.972137,295.085632 
	C270.470367,294.039398 270.879303,292.688660 271.748688,292.121399 
	C281.455292,285.787842 284.179535,274.956512 288.964691,265.495117 
	C292.387299,258.727814 295.166565,251.632889 298.643524,244.896072 
	C301.204956,239.933075 304.199127,235.143799 307.493317,230.637405 
	C308.544922,229.198853 311.374329,227.931656 313.051788,228.269058 
	C321.500000,229.968353 329.869141,232.101471 338.198578,234.334000 
	C342.647461,235.526443 346.959991,237.227539 351.667328,239.100739 
	C352.000397,239.669296 352.000214,239.836166 351.666748,240.002441 
	C350.889099,240.001755 350.444733,240.001709 349.609009,239.979614 
	C343.376343,238.363297 337.614441,236.016617 331.671051,235.389236 
	C325.885742,234.778503 319.903595,235.823639 314.038940,236.438095 
	C313.311859,236.514282 312.071808,238.569595 312.268616,239.435120 
	C313.286469,243.911209 310.678436,246.633209 308.055542,249.472427 
	C307.052917,250.557755 305.309753,251.913101 305.445892,252.941208 
	C306.321991,259.556427 301.401306,263.638824 298.801880,268.627563 
	C296.150574,273.715851 292.616150,278.353973 289.354614,283.111206 
	C286.834381,286.787170 284.008881,290.257202 281.555786,293.975006 
	C278.930328,297.954041 277.398468,303.163971 273.882690,305.902527 
	C270.389648,308.623413 268.655029,311.603424 267.395294,315.375244 
	C266.871124,316.944763 266.517365,318.582092 265.875702,320.099609 
	C262.858307,327.235748 259.322479,334.190582 256.852081,341.507355 
	C255.053055,346.835724 253.961899,352.719086 259.239532,358.200470 
	C260.585846,356.378967 261.873779,354.964935 262.790710,353.341400 
	C267.918762,344.261993 272.848419,335.069092 278.065277,326.041748 
	C281.415710,320.244110 284.045959,313.715851 291.017090,310.987732 
	C292.087585,312.157318 293.158112,313.326874 294.228607,314.496460 
	C293.970337,314.832031 293.712067,315.167603 293.453796,315.503174 
	C292.271729,315.379211 291.089630,315.255249 289.907532,315.131256 
	C290.177307,315.422577 290.447083,315.713867 290.716858,316.005188 
	C288.468994,318.184723 285.818176,320.088440 284.085205,322.620392 
	C282.306549,325.219086 281.534668,328.485352 280.128937,331.365143 
	C276.878784,338.023468 273.758728,344.765625 270.093323,351.192871 
	C268.108215,354.673767 268.525940,359.819275 263.429840,361.445709 
	C262.947754,361.599609 262.719971,364.072876 263.117096,365.209869 
	C265.526703,372.108856 261.533783,377.502380 259.073303,383.639862 
z"/>
<path fill="#176CFE" opacity="1.000000" stroke="none" 
	d="
M291.065796,310.677795 
	C284.045959,313.715851 281.415710,320.244110 278.065277,326.041748 
	C272.848419,335.069092 267.918762,344.261993 262.790710,353.341400 
	C261.873779,354.964935 260.585846,356.378967 259.239532,358.200470 
	C253.961899,352.719086 255.053055,346.835724 256.852081,341.507355 
	C259.322479,334.190582 262.858307,327.235748 265.875702,320.099609 
	C266.517365,318.582092 266.871124,316.944763 267.395294,315.375244 
	C268.655029,311.603424 270.389648,308.623413 273.882690,305.902527 
	C277.398468,303.163971 278.930328,297.954041 281.555786,293.975006 
	C284.008881,290.257202 286.834381,286.787170 289.354614,283.111206 
	C292.616150,278.353973 296.150574,273.715851 298.801880,268.627563 
	C301.401306,263.638824 306.321991,259.556427 305.445892,252.941208 
	C305.309753,251.913101 307.052917,250.557755 308.055542,249.472427 
	C310.678436,246.633209 313.286469,243.911209 312.268616,239.435120 
	C312.071808,238.569595 313.311859,236.514282 314.038940,236.438095 
	C319.903595,235.823639 325.885742,234.778503 331.671051,235.389236 
	C337.614441,236.016617 343.376343,238.363297 349.488892,240.320084 
	C348.272766,240.890976 346.702759,241.514404 345.312073,241.237427 
	C338.533691,239.887466 331.884064,239.744308 325.140778,241.665558 
	C322.037811,242.549652 320.407654,243.847778 319.748230,247.192413 
	C319.361755,249.152634 317.284424,250.799438 315.903992,252.536591 
	C315.015594,253.654526 313.948303,254.631332 313.071564,255.757339 
	C310.895630,258.552002 308.820221,261.425354 306.628387,264.207153 
	C305.617126,265.490601 304.205139,266.495270 303.355164,267.862762 
	C297.305389,277.596191 291.358978,287.393799 285.367401,297.163483 
	C284.069519,299.279785 282.510590,301.269653 281.493317,303.509186 
	C281.037598,304.512482 281.177399,306.436920 281.864685,307.116852 
	C282.491119,307.736664 284.529114,307.718689 285.415771,307.152710 
	C289.731689,304.397736 293.825653,301.298401 298.081482,298.445190 
	C304.351044,294.241974 310.691162,290.144012 316.912903,286.324341 
	C314.251312,288.914246 311.495667,291.011505 309.172913,293.511017 
	C307.771057,295.019592 307.041656,297.153015 306.010071,299.005615 
	C306.010040,299.005615 306.000000,299.000000 305.631226,299.018097 
	C301.174591,302.024536 297.086700,305.012878 292.998810,308.001221 
	C292.370728,308.790100 291.742615,309.578949 291.065796,310.677795 
z"/>
<path fill="#1670FE" opacity="1.000000" stroke="none" 
	d="
M306.332489,298.861389 
	C307.041656,297.153015 307.771057,295.019592 309.172913,293.511017 
	C311.495667,291.011505 314.251312,288.914246 317.269592,286.261108 
	C325.220520,282.158997 332.453430,277.672821 340.291809,274.895325 
	C354.586945,269.829926 369.228119,265.735138 383.750885,261.320862 
	C390.437225,259.288483 391.153595,257.597504 386.894836,251.987900 
	C385.655121,250.354965 383.819702,248.624527 381.943329,248.129684 
	C376.717346,246.751495 371.326569,245.998215 365.925018,244.699524 
	C365.232391,243.934723 364.615570,243.468567 363.665466,243.002136 
	C362.887665,243.001434 362.443237,243.001022 361.818054,242.781891 
	C361.091980,242.041901 360.546600,241.520645 360.415375,240.999207 
	C362.886353,240.666290 364.943176,240.333557 367.333130,240.002548 
	C368.110443,240.006958 368.554596,240.009628 369.108826,240.363495 
	C372.217316,241.663971 375.158295,242.931992 378.228088,243.485214 
	C382.454865,244.246933 386.778992,244.468338 391.061432,244.921204 
	C397.678589,248.277710 398.864014,257.117523 392.626587,261.930817 
	C388.891266,264.813263 383.866730,266.070190 379.347687,267.872192 
	C377.226257,268.718140 374.930145,269.125977 372.093781,269.911072 
	C370.984924,270.332581 370.495514,270.575378 370.006104,270.818207 
	C369.565582,270.855469 369.125031,270.892700 368.353882,270.948669 
	C366.723236,270.672516 365.212891,269.793396 364.156006,270.173889 
	C354.433929,273.674042 344.775116,277.352570 335.128754,281.059540 
	C327.306458,284.065552 320.092163,288.020508 314.020599,293.995392 
	C311.986420,295.997192 309.133575,297.167053 306.332489,298.861389 
z"/>
<path fill="#1684FF" opacity="1.000000" stroke="none" 
	d="
M240.998779,358.000000 
	C242.875320,367.391357 244.377457,376.880615 246.796646,386.130035 
	C247.898544,390.342957 250.464462,394.559662 256.691650,393.130280 
	C258.340149,392.494629 259.670532,392.004852 261.480743,391.338409 
	C260.579376,394.203461 259.791595,396.707458 258.957886,399.581665 
	C254.107483,403.717682 250.783722,400.570312 247.160278,396.894287 
	C244.911758,391.859985 242.947372,387.427094 240.982986,382.994171 
	C240.655106,381.252350 240.327225,379.510498 240.163681,377.191101 
	C239.886642,376.076477 239.445267,375.539459 239.003876,375.002441 
	C238.999817,374.253082 238.995758,373.503693 238.994904,371.924561 
	C238.334335,365.728943 237.670532,360.363159 237.320236,355.087646 
	C238.755432,356.118622 239.877106,357.059326 240.998779,358.000000 
z"/>
<path fill="#1670FE" opacity="1.000000" stroke="none" 
	d="
M293.336182,308.055450 
	C297.086700,305.012878 301.174591,302.024536 305.633850,299.022980 
	C303.523315,301.657288 301.213562,304.505249 298.476593,306.855713 
	C297.348511,307.824432 295.302216,307.723877 293.336182,308.055450 
z"/>
<path fill="#179CFE" opacity="1.000000" stroke="none" 
	d="
M218.992508,328.377563 
	C220.290909,321.074188 216.656281,315.376099 213.462616,310.067871 
	C205.311630,296.519958 204.961975,282.461731 207.418579,267.340302 
	C209.630417,253.725510 217.527344,242.915176 222.648407,230.757477 
	C227.260834,219.807343 231.376251,208.800018 233.107010,196.848755 
	C235.646606,179.312286 242.670547,163.082703 249.656372,146.926376 
	C249.955399,146.234787 250.765244,145.764069 251.673447,145.094788 
	C255.421341,147.374298 259.128479,149.443481 262.080322,152.294647 
	C263.080902,153.261093 262.173340,156.203033 261.716125,158.681427 
	C259.243073,160.658554 256.491180,161.785019 255.293350,163.824295 
	C253.133362,167.501617 251.300034,171.594101 250.397919,175.745209 
	C247.668777,188.303574 245.105789,200.919342 243.130371,213.614258 
	C241.093689,226.702774 235.942581,238.674881 231.105652,250.789886 
	C229.639511,254.462112 227.313797,257.825775 226.125214,261.566925 
	C223.674423,269.280853 221.707748,277.149292 219.572479,284.962555 
	C217.371689,293.015533 215.669617,301.079926 218.267593,309.418396 
	C220.917374,317.923218 223.426727,326.471802 225.997559,335.001221 
	C224.244141,334.347961 222.490723,333.694672 220.380173,333.028564 
	C219.681854,331.593445 219.340668,330.171204 218.992508,328.377563 
z"/>
<path fill="#1793FE" opacity="1.000000" stroke="none" 
	d="
M226.148056,335.333618 
	C223.426727,326.471802 220.917374,317.923218 218.267593,309.418396 
	C215.669617,301.079926 217.371689,293.015533 219.572479,284.962555 
	C221.707748,277.149292 223.674423,269.280853 226.125214,261.566925 
	C227.313797,257.825775 229.639511,254.462112 231.105652,250.789886 
	C235.942581,238.674881 241.093689,226.702774 243.130371,213.614258 
	C245.105789,200.919342 247.668777,188.303574 250.397919,175.745209 
	C251.300034,171.594101 253.133362,167.501617 255.293350,163.824295 
	C256.491180,161.785019 259.243073,160.658554 261.647827,159.059296 
	C266.574799,162.833664 272.823364,164.889359 274.912994,171.403061 
	C275.188110,172.260651 276.801758,172.607925 277.586060,173.399155 
	C279.480316,175.310150 281.179810,177.415833 283.095276,179.303619 
	C284.421875,180.611053 285.977295,181.686279 287.812012,182.904144 
	C289.793945,185.030060 291.394409,187.117111 292.824646,189.745316 
	C289.102386,188.189880 285.550323,186.093277 281.912415,183.673874 
	C279.584534,181.151123 277.623566,178.492249 275.013245,176.893738 
	C272.851807,175.570099 268.925201,174.129425 267.536072,175.144043 
	C264.246674,177.546555 260.409607,181.040955 259.635345,184.695877 
	C257.420776,195.149658 256.791809,205.863007 254.467773,216.428162 
	C252.652756,224.679169 251.581451,232.969650 247.747620,240.620285 
	C245.533920,245.037827 243.136917,249.391113 241.310089,253.967987 
	C238.988373,259.784729 237.138763,265.791260 235.124908,271.729279 
	C231.179459,283.362640 227.199081,294.985016 223.402359,306.666931 
	C222.866348,308.316132 222.944061,310.346771 223.315216,312.076965 
	C224.839066,319.181030 226.639175,326.225281 228.232132,333.315277 
	C229.252045,337.854767 230.087402,342.435730 231.005493,346.998108 
	C229.436493,343.220764 227.867523,339.443390 226.148056,335.333618 
z"/>
<path fill="#27BFF8" opacity="1.000000" stroke="none" 
	d="
M267.165100,129.840561 
	C267.002777,129.583359 267.007965,129.154236 267.037872,128.406250 
	C267.062561,128.087387 267.350922,128.167709 267.481079,128.238998 
	C267.518372,128.763077 267.425507,129.215866 267.165100,129.840561 
z"/>
<path fill="#178DFE" opacity="1.000000" stroke="none" 
	d="
M231.004974,347.331024 
	C230.087402,342.435730 229.252045,337.854767 228.232132,333.315277 
	C226.639175,326.225281 224.839066,319.181030 223.315216,312.076965 
	C222.944061,310.346771 222.866348,308.316132 223.402359,306.666931 
	C227.199081,294.985016 231.179459,283.362640 235.124908,271.729279 
	C237.138763,265.791260 238.988373,259.784729 241.310089,253.967987 
	C243.136917,249.391113 245.533920,245.037827 247.747620,240.620285 
	C251.581451,232.969650 252.652756,224.679169 254.467773,216.428162 
	C256.791809,205.863007 257.420776,195.149658 259.635345,184.695877 
	C260.409607,181.040955 264.246674,177.546555 267.536072,175.144043 
	C268.925201,174.129425 272.851807,175.570099 275.013245,176.893738 
	C277.623566,178.492249 279.584534,181.151123 281.486328,183.675293 
	C276.707245,184.331818 271.508820,183.782135 269.104126,188.297241 
	C266.989746,192.267273 265.878815,196.926254 265.087830,201.415421 
	C263.280457,211.672714 262.809357,222.242279 260.161316,232.252701 
	C257.602844,241.924408 253.037399,251.070908 249.276230,260.416962 
	C246.250763,267.934845 243.105652,275.404510 240.022568,282.899261 
	C239.143875,285.035278 238.333374,287.199890 237.428452,289.324463 
	C233.147003,299.376617 227.684692,309.239319 228.273926,320.505371 
	C228.512909,325.074554 231.341705,329.508301 232.997955,334.367249 
	C233.666656,335.822113 234.329468,336.913361 234.992371,338.337097 
	C234.992813,339.112885 234.993164,339.556183 234.820007,340.168884 
	C234.763382,340.892151 234.880264,341.446014 234.997833,342.333374 
	C235.000031,343.111511 235.001541,343.556122 235.003571,344.359070 
	C235.335098,345.811340 235.666092,346.905334 235.997986,348.399933 
	C236.334824,350.866150 236.670776,352.931732 237.006714,354.997345 
	C237.670532,360.363159 238.334335,365.728943 238.994934,371.549866 
	C238.400116,371.477539 237.437943,371.045044 237.274704,370.407867 
	C235.773865,364.550232 234.411438,358.657135 232.985428,352.049805 
	C232.310913,350.548645 231.659668,349.772095 231.008423,348.995544 
	C231.007095,348.551666 231.005783,348.107819 231.004974,347.331024 
z"/>
<path fill="#178DFE" opacity="1.000000" stroke="none" 
	d="
M240.687042,383.081879 
	C242.947372,387.427094 244.911758,391.859985 246.933502,396.646790 
	C242.726883,394.990631 239.638260,388.517853 240.687042,383.081879 
z"/>
<path fill="#1793FE" opacity="1.000000" stroke="none" 
	d="
M231.023605,349.334839 
	C231.659668,349.772095 232.310913,350.548645 232.978821,351.664124 
	C232.343262,351.226715 231.691025,350.450439 231.023605,349.334839 
z"/>
<path fill="#178DFE" opacity="1.000000" stroke="none" 
	d="
M239.047607,375.287048 
	C239.445267,375.539459 239.886642,376.076477 240.160614,376.806335 
	C239.692581,376.523315 239.391953,376.047516 239.047607,375.287048 
z"/>
<path fill="#2E9AF5" opacity="1.000000" stroke="none" 
	d="
M224.214386,342.781738 
	C223.920853,342.413605 223.791473,341.883820 223.839584,341.195557 
	C224.137558,341.564789 224.258057,342.092438 224.214386,342.781738 
z"/>
<path fill="#1688FE" opacity="1.000000" stroke="none" 
	d="
M232.992065,334.003662 
	C231.341705,329.508301 228.512909,325.074554 228.273926,320.505371 
	C227.684692,309.239319 233.147003,299.376617 237.428452,289.324463 
	C238.333374,287.199890 239.143875,285.035278 240.022568,282.899261 
	C243.105652,275.404510 246.250763,267.934845 249.276230,260.416962 
	C253.037399,251.070908 257.602844,241.924408 260.161316,232.252701 
	C262.809357,222.242279 263.280457,211.672714 265.087830,201.415421 
	C265.878815,196.926254 266.989746,192.267273 269.104126,188.297241 
	C271.508820,183.782135 276.707245,184.331818 281.572205,183.998108 
	C285.550323,186.093277 289.102386,188.189880 292.896790,190.079025 
	C294.703979,191.014252 296.711456,191.847305 297.762268,193.349518 
	C304.921814,203.584549 314.594208,211.015076 324.734619,217.929840 
	C325.886719,218.715439 327.507782,218.813309 329.270203,219.318512 
	C332.515930,221.232590 335.407257,223.051285 338.287598,224.887131 
	C339.507202,225.664429 340.703857,226.477722 341.615265,227.560791 
	C337.156036,226.441299 333.011963,224.971970 328.812164,223.684540 
	C327.985077,223.431000 326.942963,223.879105 326.000000,224.003601 
	C326.000000,224.003586 325.500427,223.998901 325.115295,223.801651 
	C324.524170,223.359009 324.281189,223.158401 324.001221,223.002579 
	C323.834076,223.001984 323.666901,223.001373 323.098206,222.690994 
	C319.360382,220.154510 316.087280,217.825333 312.674957,215.722000 
	C305.153870,211.086044 297.562592,206.564011 289.924377,201.697235 
	C289.232941,200.933548 288.617096,200.468094 287.667603,200.001709 
	C286.889191,199.999695 286.444397,199.998627 285.818970,199.711609 
	C283.665405,198.076172 281.099304,195.182327 279.831512,195.669235 
	C276.149231,197.083389 272.276947,198.923111 271.917206,204.174622 
	C271.389496,211.876648 271.102905,219.760727 269.155975,227.157242 
	C266.821594,236.025711 263.059296,244.550507 259.513641,253.056717 
	C257.109619,258.824036 253.636078,264.151886 251.317596,269.947052 
	C247.971237,278.311462 245.347824,286.962555 242.166840,295.397369 
	C241.371048,297.507507 239.632339,299.264832 238.309402,301.172150 
	C237.652328,302.119476 236.588730,302.948914 236.333572,303.985443 
	C233.908279,313.837616 229.312637,323.470764 232.992065,334.003662 
z"/>
<path fill="#167FFE" opacity="1.000000" stroke="none" 
	d="
M326.068512,224.345917 
	C326.942963,223.879105 327.985077,223.431000 328.812164,223.684540 
	C333.011963,224.971970 337.156036,226.441299 341.724365,227.894928 
	C342.129089,227.942947 342.553925,227.932419 342.826111,228.256256 
	C343.842407,230.440201 344.670868,231.664642 346.019745,228.967789 
	C352.601105,231.222916 359.203705,233.419205 365.747772,235.777832 
	C367.235199,236.313919 368.519958,237.412384 369.792084,238.737213 
	C369.457031,239.485718 369.227905,239.749008 368.998779,240.012299 
	C368.554596,240.009628 368.110443,240.006958 367.063477,239.767593 
	C363.973633,239.352158 361.486633,239.173386 358.667480,238.994385 
	C357.892700,238.993683 357.450012,238.993179 357.007324,238.992676 
	C355.843903,238.319733 354.742218,237.492188 353.507080,236.998734 
	C345.001160,233.600540 336.453522,230.306168 327.965668,226.864090 
	C327.189606,226.549393 326.738831,225.432587 326.068512,224.345917 
z"/>
<path fill="#1776FE" opacity="1.000000" stroke="none" 
	d="
M369.108826,240.363495 
	C369.227905,239.749008 369.457031,239.485718 369.904663,239.071777 
	C375.924194,239.976807 381.743256,240.946686 387.510925,242.160614 
	C388.663757,242.403259 389.620636,243.576981 390.864624,244.621307 
	C386.778992,244.468338 382.454865,244.246933 378.228088,243.485214 
	C375.158295,242.931992 372.217316,241.663971 369.108826,240.363495 
z"/>
<path fill="#1688FE" opacity="1.000000" stroke="none" 
	d="
M345.727051,228.831131 
	C344.670868,231.664642 343.842407,230.440201 343.038361,228.266525 
	C343.797058,228.200134 344.615692,228.447311 345.727051,228.831131 
z"/>
<path fill="#1F71ED" opacity="1.000000" stroke="none" 
	d="
M370.287231,270.811584 
	C370.495514,270.575378 370.984924,270.332581 371.753296,270.066925 
	C371.544312,270.297699 371.056335,270.551331 370.287231,270.811584 
z"/>
<path fill="#27BFF8" opacity="1.000000" stroke="none" 
	d="
M215.717834,186.177048 
	C215.222870,187.601562 214.446960,189.203369 213.340088,190.899872 
	C213.818405,189.447830 214.627655,187.901077 215.717834,186.177048 
z"/>
<path fill="#167FFE" opacity="1.000000" stroke="none" 
	d="
M289.999939,201.995468 
	C297.562592,206.564011 305.153870,211.086044 312.674957,215.722000 
	C316.087280,217.825333 319.360382,220.154510 322.847443,222.689697 
	C317.900604,221.295319 312.380493,220.328461 307.811218,217.705292 
	C301.962036,214.347397 296.028381,214.416016 290.324890,214.676376 
	C285.758392,228.904297 281.916656,243.238007 276.499908,256.949493 
	C272.660156,266.669189 266.664886,275.533508 261.692047,284.811951 
	C260.298431,287.412201 258.634399,290.005798 257.932312,292.812073 
	C255.940369,300.773895 251.511185,306.996857 246.039124,312.970795 
	C243.448029,315.799530 242.027451,320.243042 241.346329,324.174927 
	C239.454147,335.097809 238.501633,346.138123 240.975098,357.580627 
	C239.877106,357.059326 238.755432,356.118622 237.320236,355.087646 
	C236.670776,352.931732 236.334824,350.866150 236.212769,348.148926 
	C235.952133,346.331818 235.477600,345.166290 235.003052,344.000763 
	C235.001541,343.556122 235.000031,343.111511 235.172821,342.164551 
	C235.229233,341.107971 235.111374,340.553711 234.993500,339.999481 
	C234.993164,339.556183 234.992813,339.112885 234.994873,337.873596 
	C234.264343,327.533112 236.586639,318.608215 240.960205,310.256927 
	C245.216278,302.130005 251.660202,295.070862 252.537918,285.328613 
	C252.655792,284.020020 254.177353,282.887054 254.849503,281.570984 
	C258.223633,274.964417 261.870392,268.468719 264.777161,261.659088 
	C268.447510,253.060623 271.100464,244.019119 274.926880,235.498642 
	C278.521088,227.495361 281.136078,219.386536 280.921326,210.615433 
	C280.808777,206.017960 282.141235,202.503983 285.999573,199.997559 
	C286.444397,199.998627 286.889191,199.999695 287.742798,200.300171 
	C288.767731,201.064880 289.383820,201.530167 289.999939,201.995468 
z"/>
<path fill="#176CFE" opacity="1.000000" stroke="none" 
	d="
M360.001221,240.999390 
	C360.546600,241.520645 361.091980,242.041901 361.388000,242.781830 
	C358.092407,242.001343 355.046204,241.002197 352.000000,240.003052 
	C352.000214,239.836166 352.000397,239.669296 352.000916,239.252121 
	C352.750397,239.002548 353.499603,239.003281 354.735046,239.336075 
	C356.481293,240.111282 357.741241,240.554428 359.251221,240.998047 
	C359.667877,240.998825 359.834564,240.999100 360.001221,240.999390 
z"/>
<path fill="#1670FE" opacity="1.000000" stroke="none" 
	d="
M359.001221,240.997559 
	C357.741241,240.554428 356.481293,240.111282 355.109650,239.336716 
	C355.444427,239.002960 355.890900,239.000626 356.672333,238.995483 
	C357.450012,238.993179 357.892700,238.993683 358.667694,239.328293 
	C359.000397,240.107468 359.000824,240.552505 359.001221,240.997559 
z"/>
<path fill="#167FFE" opacity="1.000000" stroke="none" 
	d="
M324.137268,223.196960 
	C324.281189,223.158401 324.524170,223.359009 324.865540,223.799332 
	C324.721985,223.837204 324.479431,223.636230 324.137268,223.196960 
z"/>
<path fill="#1568FE" opacity="1.000000" stroke="none" 
	d="
M351.666748,240.002426 
	C355.046204,241.002197 358.092407,242.001343 361.568695,243.000549 
	C362.443237,243.001022 362.887665,243.001434 363.741394,243.300690 
	C364.767395,244.065750 365.384125,244.531967 366.000854,244.998169 
	C371.326569,245.998215 376.717346,246.751495 381.943329,248.129684 
	C383.819702,248.624527 385.655121,250.354965 386.894836,251.987900 
	C391.153595,257.597504 390.437225,259.288483 383.750885,261.320862 
	C369.228119,265.735138 354.586945,269.829926 340.291809,274.895325 
	C332.453430,277.672821 325.220520,282.158997 317.357910,285.937958 
	C310.691162,290.144012 304.351044,294.241974 298.081482,298.445190 
	C293.825653,301.298401 289.731689,304.397736 285.415771,307.152710 
	C284.529114,307.718689 282.491119,307.736664 281.864685,307.116852 
	C281.177399,306.436920 281.037598,304.512482 281.493317,303.509186 
	C282.510590,301.269653 284.069519,299.279785 285.367401,297.163483 
	C291.358978,287.393799 297.305389,277.596191 303.355164,267.862762 
	C304.205139,266.495270 305.617126,265.490601 306.628387,264.207153 
	C308.820221,261.425354 310.895630,258.552002 313.071564,255.757339 
	C313.948303,254.631332 315.015594,253.654526 315.903992,252.536591 
	C317.284424,250.799438 319.361755,249.152634 319.748230,247.192413 
	C320.407654,243.847778 322.037811,242.549652 325.140778,241.665558 
	C331.884064,239.744308 338.533691,239.887466 345.312073,241.237427 
	C346.702759,241.514404 348.272766,240.890976 349.880249,240.342117 
	C350.444733,240.001709 350.889099,240.001755 351.666748,240.002426 
M320.338074,279.740601 
	C325.187408,278.025970 330.079590,276.421967 334.873352,274.563934 
	C339.203888,272.885376 343.296753,270.487305 347.723389,269.184204 
	C358.059418,266.141327 368.567505,263.684967 378.918304,260.688385 
	C380.733887,260.162750 382.731384,258.422150 383.446045,256.734863 
	C383.789948,255.922882 381.566742,253.639908 380.121490,252.518707 
	C372.983643,246.981125 363.905426,248.413223 355.867950,246.024597 
	C347.351440,243.493607 340.410675,246.073990 333.269562,251.433319 
	C327.596741,255.690735 323.502197,260.967773 319.005829,266.076782 
	C315.523865,270.033142 312.074005,274.043915 308.978302,278.298523 
	C308.016357,279.620575 308.259644,281.819580 307.951141,283.617096 
	C309.573090,283.433167 311.286255,283.517212 312.795868,283.003296 
	C315.132782,282.207703 317.330750,281.003906 320.338074,279.740601 
z"/>
<path fill="#1776FE" opacity="1.000000" stroke="none" 
	d="
M359.251221,240.998047 
	C359.000824,240.552505 359.000397,240.107468 358.999817,239.328522 
	C361.486633,239.173386 363.973633,239.352158 366.730347,239.765869 
	C364.943176,240.333557 362.886353,240.666290 360.415375,240.999207 
	C359.834564,240.999100 359.667877,240.998825 359.251221,240.998047 
z"/>
<path fill="#176CFE" opacity="1.000000" stroke="none" 
	d="
M365.925018,244.699524 
	C365.384125,244.531967 364.767395,244.065750 364.074707,243.300964 
	C364.615570,243.468567 365.232391,243.934723 365.925018,244.699524 
z"/>
<path fill="#1684FF" opacity="1.000000" stroke="none" 
	d="
M285.818970,199.711594 
	C282.141235,202.503983 280.808777,206.017960 280.921326,210.615433 
	C281.136078,219.386536 278.521088,227.495361 274.926880,235.498642 
	C271.100464,244.019119 268.447510,253.060623 264.777161,261.659088 
	C261.870392,268.468719 258.223633,274.964417 254.849503,281.570984 
	C254.177353,282.887054 252.655792,284.020020 252.537918,285.328613 
	C251.660202,295.070862 245.216278,302.130005 240.960205,310.256927 
	C236.586639,318.608215 234.264343,327.533112 234.994781,337.541107 
	C234.329468,336.913361 233.666656,335.822113 232.997955,334.367249 
	C229.312637,323.470764 233.908279,313.837616 236.333572,303.985443 
	C236.588730,302.948914 237.652328,302.119476 238.309402,301.172150 
	C239.632339,299.264832 241.371048,297.507507 242.166840,295.397369 
	C245.347824,286.962555 247.971237,278.311462 251.317596,269.947052 
	C253.636078,264.151886 257.109619,258.824036 259.513641,253.056717 
	C263.059296,244.550507 266.821594,236.025711 269.155975,227.157242 
	C271.102905,219.760727 271.389496,211.876648 271.917206,204.174622 
	C272.276947,198.923111 276.149231,197.083389 279.831512,195.669235 
	C281.099304,195.182327 283.665405,198.076172 285.818970,199.711594 
z"/>
<path fill="#1684FF" opacity="1.000000" stroke="none" 
	d="
M235.003571,344.359070 
	C235.477600,345.166290 235.952133,346.331818 236.211884,347.748352 
	C235.666092,346.905334 235.335098,345.811340 235.003571,344.359070 
z"/>
<path fill="#1684FF" opacity="1.000000" stroke="none" 
	d="
M234.820007,340.168884 
	C235.111374,340.553711 235.229233,341.107971 235.172119,341.831055 
	C234.880264,341.446014 234.763382,340.892151 234.820007,340.168884 
z"/>
<path fill="#1684FF" opacity="1.000000" stroke="none" 
	d="
M289.924377,201.697235 
	C289.383820,201.530167 288.767731,201.064880 288.076416,200.301117 
	C288.617096,200.468094 289.232941,200.933548 289.924377,201.697235 
z"/>
<path fill="#1362FD" opacity="1.000000" stroke="none" 
	d="
M319.962830,279.856903 
	C317.330750,281.003906 315.132782,282.207703 312.795868,283.003296 
	C311.286255,283.517212 309.573090,283.433167 307.951141,283.617126 
	C308.259644,281.819580 308.016357,279.620575 308.978302,278.298523 
	C312.074005,274.043915 315.523865,270.033142 319.005829,266.076782 
	C323.502197,260.967773 327.596741,255.690735 333.269562,251.433319 
	C340.410675,246.073990 347.351440,243.493607 355.867950,246.024597 
	C363.905426,248.413223 372.983643,246.981125 380.121490,252.518707 
	C381.566742,253.639908 383.789948,255.922882 383.446045,256.734863 
	C382.731384,258.422150 380.733887,260.162750 378.918304,260.688385 
	C368.567505,263.684967 358.059418,266.141327 347.723389,269.184204 
	C343.296753,270.487305 339.203888,272.885376 334.873352,274.563934 
	C330.079590,276.421967 325.187408,278.025970 319.962830,279.856903 
z"/>
</svg>